<svg version="1.1" xmlns="http://www.w3.org/2000/svg" viewBox="0 0 173.67037729206277 167.29378475875785" width="347.34075458412553" height="334.5875695175157">
    <rect x="0" y="0" width="173.67037729206277" height="167.29378475875785" fill="none"></rect>
    <g stroke-linecap="round" transform="translate(10 117.60230859955152) rotate(0 76.83518864603184 19.845738079603166)">
        <path d="M153.67 19.85 C153.67 20.71, 153.45 21.58, 153.01 22.44 C152.58 23.29, 151.92 24.15, 151.05 24.98 C150.19 25.82, 149.1 26.64, 147.82 27.44 C146.54 28.24, 145.05 29.02, 143.38 29.77 C141.7 30.52, 139.83 31.24, 137.79 31.93 C135.76 32.61, 133.53 33.27, 131.17 33.88 C128.8 34.49, 126.26 35.06, 123.61 35.59 C120.96 36.12, 118.15 36.6, 115.25 37.03 C112.36 37.46, 109.33 37.85, 106.24 38.18 C103.15 38.51, 99.95 38.79, 96.72 39.02 C93.49 39.24, 90.18 39.41, 86.86 39.52 C83.55 39.63, 80.18 39.69, 76.84 39.69 C73.49 39.69, 70.12 39.63, 66.81 39.52 C63.49 39.41, 60.18 39.24, 56.95 39.02 C53.72 38.79, 50.52 38.51, 47.43 38.18 C44.34 37.85, 41.31 37.46, 38.42 37.03 C35.52 36.6, 32.71 36.12, 30.06 35.59 C27.41 35.06, 24.87 34.49, 22.5 33.88 C20.14 33.27, 17.91 32.61, 15.88 31.93 C13.84 31.24, 11.97 30.52, 10.29 29.77 C8.62 29.02, 7.13 28.24, 5.85 27.44 C4.57 26.64, 3.48 25.82, 2.62 24.98 C1.75 24.15, 1.09 23.29, 0.66 22.44 C0.22 21.58, 0 20.71, 0 19.85 C0 18.98, 0.22 18.11, 0.66 17.26 C1.09 16.4, 1.75 15.54, 2.62 14.71 C3.48 13.88, 4.57 13.05, 5.85 12.25 C7.13 11.45, 8.62 10.67, 10.29 9.92 C11.97 9.18, 13.84 8.45, 15.88 7.76 C17.91 7.08, 20.14 6.42, 22.5 5.81 C24.87 5.2, 27.41 4.63, 30.06 4.1 C32.71 3.58, 35.52 3.09, 38.42 2.66 C41.31 2.23, 44.34 1.84, 47.43 1.51 C50.52 1.18, 53.72 0.9, 56.95 0.68 C60.18 0.45, 63.49 0.28, 66.81 0.17 C70.12 0.06, 73.49 0, 76.84 0 C80.18 0, 83.55 0.06, 86.86 0.17 C90.18 0.28, 93.49 0.45, 96.72 0.68 C99.95 0.9, 103.15 1.18, 106.24 1.51 C109.33 1.84, 112.36 2.23, 115.25 2.66 C118.15 3.09, 120.96 3.58, 123.61 4.1 C126.26 4.63, 128.8 5.2, 131.17 5.81 C133.53 6.42, 135.76 7.08, 137.79 7.76 C139.83 8.45, 141.7 9.18, 143.38 9.92 C145.05 10.67, 146.54 11.45, 147.82 12.25 C149.1 13.05, 150.19 13.88, 151.05 14.71 C151.92 15.54, 152.58 16.4, 153.01 17.26 C153.45 18.11, 153.56 19.41, 153.67 19.85 C153.78 20.28, 153.78 19.41, 153.67 19.85" stroke="none" stroke-width="0" fill="#b2f2bb">
        </path>
        <path d="M153.67 19.85 C153.67 20.71, 153.45 21.58, 153.01 22.44 C152.58 23.29, 151.92 24.15, 151.05 24.98 C150.19 25.82, 149.1 26.64, 147.82 27.44 C146.54 28.24, 145.05 29.02, 143.38 29.77 C141.7 30.52, 139.83 31.24, 137.79 31.93 C135.76 32.61, 133.53 33.27, 131.17 33.88 C128.8 34.49, 126.26 35.06, 123.61 35.59 C120.96 36.12, 118.15 36.6, 115.25 37.03 C112.36 37.46, 109.33 37.85, 106.24 38.18 C103.15 38.51, 99.95 38.79, 96.72 39.02 C93.49 39.24, 90.18 39.41, 86.86 39.52 C83.55 39.63, 80.18 39.69, 76.84 39.69 C73.49 39.69, 70.12 39.63, 66.81 39.52 C63.49 39.41, 60.18 39.24, 56.95 39.02 C53.72 38.79, 50.52 38.51, 47.43 38.18 C44.34 37.85, 41.31 37.46, 38.42 37.03 C35.52 36.6, 32.71 36.12, 30.06 35.59 C27.41 35.06, 24.87 34.49, 22.5 33.88 C20.14 33.27, 17.91 32.61, 15.88 31.93 C13.84 31.24, 11.97 30.52, 10.29 29.77 C8.62 29.02, 7.13 28.24, 5.85 27.44 C4.57 26.64, 3.48 25.82, 2.62 24.98 C1.75 24.15, 1.09 23.29, 0.66 22.44 C0.22 21.58, 0 20.71, 0 19.85 C0 18.98, 0.22 18.11, 0.66 17.26 C1.09 16.4, 1.75 15.54, 2.62 14.71 C3.48 13.88, 4.57 13.05, 5.85 12.25 C7.13 11.45, 8.62 10.67, 10.29 9.92 C11.97 9.18, 13.84 8.45, 15.88 7.76 C17.91 7.08, 20.14 6.42, 22.5 5.81 C24.87 5.2, 27.41 4.63, 30.06 4.1 C32.71 3.58, 35.52 3.09, 38.42 2.66 C41.31 2.23, 44.34 1.84, 47.43 1.51 C50.52 1.18, 53.72 0.9, 56.95 0.68 C60.18 0.45, 63.49 0.28, 66.81 0.17 C70.12 0.06, 73.49 0, 76.84 0 C80.18 0, 83.55 0.06, 86.86 0.17 C90.18 0.28, 93.49 0.45, 96.72 0.68 C99.95 0.9, 103.15 1.18, 106.24 1.51 C109.33 1.84, 112.36 2.23, 115.25 2.66 C118.15 3.09, 120.96 3.58, 123.61 4.1 C126.26 4.63, 128.8 5.2, 131.17 5.81 C133.53 6.42, 135.76 7.08, 137.79 7.76 C139.83 8.45, 141.7 9.18, 143.38 9.92 C145.05 10.67, 146.54 11.45, 147.82 12.25 C149.1 13.05, 150.19 13.88, 151.05 14.71 C151.92 15.54, 152.58 16.4, 153.01 17.26 C153.45 18.11, 153.56 19.41, 153.67 19.85 C153.78 20.28, 153.78 19.41, 153.67 19.85" stroke="#b2f2bb" stroke-width="2" fill="none"></path></g><g transform="translate(55.853761442505856 41.30643278383184) rotate(0 31.135684249635688 48.60063428641109)" stroke="none"><path fill="#ffec99" d="M 1.97,0.79 Q 1.97,0.79 1.62,1.92 1.27,3.06 0.91,4.78 0.56,6.50 0.13,8.39 -0.29,10.29 -0.57,11.41 -0.85,12.53 -1.15,13.66 -1.46,14.80 -1.77,15.94 -2.09,17.07 -2.45,18.89 -2.81,20.71 -3.09,21.79 -3.37,22.88 -3.82,24.50 -4.28,26.13 -4.76,27.78 -5.24,29.44 -5.68,31.10 -6.13,32.76 -6.59,34.59 -7.06,36.41 -7.55,38.03 -8.04,39.65 -8.44,41.13 -8.84,42.62 -9.36,44.75 -9.87,46.89 -10.35,49.12 -10.82,51.35 -11.17,53.26 -11.52,55.17 -11.79,56.90 -12.06,58.63 -12.26,60.22 -12.46,61.82 -12.72,63.44 -12.97,65.07 -13.12,66.56 -13.27,68.05 -13.43,69.21 -13.59,70.38 -13.71,71.55 -13.83,72.72 -13.95,74.55 -14.06,76.37 -14.07,77.71 -14.07,79.05 -14.04,80.36 -14.01,81.67 -13.74,82.98 -13.46,84.29 -12.33,85.11 -11.20,85.94 -10.10,87.00 -9.00,88.05 -8.11,88.64 -7.22,89.22 -5.97,90.02 -4.72,90.81 -3.69,91.09 -2.66,91.38 -1.52,91.79 -0.38,92.21 0.69,92.50 1.76,92.80 3.08,92.97 4.39,93.15 5.45,93.35 6.51,93.55 8.20,93.87 9.89,94.19 11.02,94.21 12.16,94.24 13.63,94.40 15.10,94.56 16.62,94.73 18.15,94.91 19.39,94.94 20.63,94.97 21.76,94.98 22.90,94.98 24.34,95.09 25.79,95.21 26.92,95.25 28.05,95.30 29.57,95.32 31.10,95.35 32.92,95.38 34.73,95.41 36.19,95.42 37.65,95.42 39.29,95.43 40.92,95.44 42.57,95.45 44.22,95.46 45.70,95.46 47.18,95.46 48.77,95.47 50.35,95.47 51.95,95.47 53.55,95.48 55.08,95.33 56.61,95.17 57.81,94.92 59.01,94.66 60.16,94.54 61.31,94.41 62.74,94.11 64.18,93.81 65.31,93.45 66.44,93.09 67.76,92.65 69.07,92.21 70.39,91.53 71.71,90.86 72.64,89.95 73.57,89.05 74.09,87.98 74.61,86.91 75.12,85.52 75.63,84.13 75.82,82.91 76.02,81.69 76.04,80.47 76.06,79.25 76.08,78.14 76.09,77.04 76.10,75.81 76.11,74.57 76.00,72.80 75.89,71.02 75.70,69.63 75.50,68.24 75.23,66.93 74.95,65.62 74.82,64.20 74.68,62.78 74.38,61.73 74.09,60.68 73.75,59.39 73.42,58.10 73.00,56.50 72.59,54.91 72.20,53.27 71.80,51.64 71.36,50.08 70.92,48.51 70.57,47.11 70.22,45.71 69.75,44.04 69.27,42.37 68.80,40.91 68.33,39.45 67.74,37.40 67.16,35.36 66.69,34.09 66.21,32.81 65.72,31.49 65.24,30.16 64.90,29.10 64.57,28.05 64.19,26.54 63.81,25.03 63.42,23.44 63.04,21.84 62.54,20.24 62.04,18.64 61.54,17.31 61.04,15.98 60.66,14.95 60.29,13.91 59.95,12.38 59.61,10.86 59.31,9.76 59.01,8.65 58.68,7.55 58.36,6.44 57.98,5.29 57.60,4.15 56.47,1.77 55.35,-0.60 55.27,-1.19 55.20,-1.79 55.32,-2.38 55.44,-2.97 55.74,-3.49 56.04,-4.01 56.49,-4.41 56.95,-4.81 57.50,-5.04 58.06,-5.27 58.66,-5.31 59.26,-5.35 59.84,-5.20 60.42,-5.05 60.93,-4.72 61.43,-4.39 61.80,-3.92 62.17,-3.44 62.37,-2.88 62.58,-2.31 62.59,-1.71 62.59,-1.10 62.41,-0.53 62.23,0.03 61.87,0.52 61.52,1.00 61.02,1.35 60.53,1.69 59.95,1.86 59.37,2.03 58.77,2.01 58.17,1.99 57.61,1.77 57.05,1.56 56.58,1.18 56.12,0.79 55.80,0.28 55.48,-0.22 55.34,-0.80 55.20,-1.39 55.26,-1.99 55.32,-2.59 55.56,-3.14 55.80,-3.69 56.21,-4.13 56.62,-4.57 57.15,-4.86 57.67,-5.15 58.26,-5.26 58.86,-5.37 59.45,-5.28 60.05,-5.19 60.58,-4.92 61.12,-4.64 61.54,-4.21 61.96,-3.78 62.22,-3.24 62.48,-2.70 62.48,-2.70 62.48,-2.70 63.16,-1.20 63.85,0.29 64.32,1.48 64.80,2.66 65.26,4.11 65.73,5.57 66.07,7.11 66.42,8.65 66.72,10.01 67.01,11.38 67.33,12.41 67.64,13.44 67.91,14.49 68.18,15.55 68.55,16.64 68.91,17.73 69.40,19.25 69.88,20.77 70.22,22.07 70.56,23.37 70.84,24.52 71.11,25.67 71.48,26.86 71.84,28.05 72.33,29.36 72.82,30.68 73.36,32.13 73.90,33.58 74.47,35.43 75.03,37.28 75.35,38.32 75.68,39.36 75.98,40.42 76.28,41.48 76.65,42.82 77.02,44.16 77.36,45.47 77.70,46.79 78.18,48.36 78.67,49.94 79.02,51.29 79.37,52.64 79.83,54.20 80.29,55.76 80.55,57.02 80.81,58.28 81.14,59.57 81.47,60.85 81.64,62.00 81.82,63.14 82.02,64.30 82.22,65.46 82.56,67.10 82.89,68.75 83.06,70.29 83.24,71.83 83.36,73.20 83.47,74.58 83.49,75.81 83.50,77.05 83.50,78.17 83.51,79.29 83.46,80.96 83.41,82.62 83.09,84.19 82.78,85.77 82.53,86.81 82.28,87.84 81.62,89.34 80.96,90.85 80.29,92.04 79.62,93.22 78.51,94.28 77.40,95.35 76.54,96.02 75.67,96.70 74.63,97.31 73.59,97.92 72.23,98.43 70.88,98.94 69.86,99.37 68.85,99.80 67.63,100.12 66.41,100.45 64.81,100.79 63.22,101.14 62.12,101.26 61.02,101.39 59.82,101.55 58.62,101.71 57.54,101.86 56.45,102.01 55.00,102.12 53.55,102.22 51.95,102.23 50.35,102.23 48.77,102.23 47.18,102.24 45.70,102.24 44.22,102.24 42.57,102.25 40.92,102.26 39.28,102.27 37.65,102.28 36.19,102.28 34.73,102.28 32.90,102.31 31.07,102.34 29.48,102.35 27.88,102.35 26.30,102.28 24.71,102.21 23.32,102.13 21.92,102.05 20.48,102.04 19.03,102.04 17.44,101.96 15.85,101.88 14.45,101.75 13.04,101.61 11.90,101.53 10.76,101.45 9.49,101.33 8.22,101.21 6.94,100.95 5.67,100.70 4.46,100.48 3.25,100.26 1.59,100.06 -0.05,99.86 -1.27,99.54 -2.49,99.23 -3.51,98.91 -4.54,98.59 -5.70,97.95 -6.86,97.31 -7.91,96.83 -8.97,96.35 -10.26,95.71 -11.54,95.06 -12.77,94.12 -14.00,93.17 -14.87,92.35 -15.74,91.53 -16.63,90.77 -17.51,90.01 -18.71,88.54 -19.91,87.08 -20.35,85.84 -20.80,84.60 -20.92,83.13 -21.03,81.67 -21.00,80.33 -20.97,78.98 -20.90,77.64 -20.84,76.30 -20.67,75.05 -20.50,73.80 -20.29,72.31 -20.08,70.81 -19.92,69.45 -19.77,68.09 -19.51,66.92 -19.26,65.74 -19.00,64.01 -18.75,62.27 -18.51,60.75 -18.27,59.23 -17.86,57.54 -17.45,55.84 -17.13,54.03 -16.81,52.22 -16.57,51.11 -16.34,50.01 -16.08,48.95 -15.81,47.88 -15.57,46.66 -15.33,45.45 -14.78,43.39 -14.24,41.34 -13.94,39.85 -13.64,38.37 -13.09,35.66 -12.55,32.96 -12.05,31.18 -11.55,29.40 -11.05,27.78 -10.54,26.16 -10.01,24.41 -9.49,22.66 -9.02,21.13 -8.55,19.60 -8.09,17.57 -7.62,15.55 -7.31,14.42 -7.00,13.30 -6.44,11.19 -5.87,9.09 -5.35,7.18 -4.83,5.28 -4.29,3.35 -3.75,1.42 -3.36,0.29 -2.98,-0.82 -2.84,-1.11 -2.71,-1.39 -2.51,-1.64 -2.32,-1.88 -2.07,-2.07 -1.82,-2.26 -1.53,-2.39 -1.24,-2.51 -0.93,-2.56 -0.62,-2.62 -0.31,-2.59 0.00,-2.57 0.30,-2.47 0.60,-2.37 0.86,-2.21 1.13,-2.04 1.35,-1.82 1.57,-1.59 1.73,-1.32 1.88,-1.05 1.97,-0.75 2.06,-0.45 2.08,-0.13 2.09,0.17 2.03,0.48 1.97,0.79 1.97,0.79 L 1.97,0.79 Z"></path></g><g transform="translate(121.50029304414511 56.20281967603967) rotate(0 -0.16534695561676926 0)" stroke="none"><path fill="#ffec99" d="M 2.12,-0.66 Q 2.12,-0.66 2.15,-0.13 2.18,0.40 1.96,0.88 1.74,1.36 1.32,1.69 0.91,2.02 0.38,2.12 -0.13,2.21 -0.64,2.05 -1.14,1.90 -1.52,1.52 -1.90,1.14 -2.05,0.64 -2.21,0.13 -2.12,-0.38 -2.02,-0.91 -1.69,-1.32 -1.36,-1.74 -0.88,-1.96 -0.39,-2.18 0.13,-2.15 0.66,-2.11 1.11,-1.84 1.57,-1.56 1.84,-1.11 L 2.12,-0.66 Z"></path></g><g transform="translate(55.3615107973219 42.31367540420672) rotate(0 29.431758099836316 -0.49604086685116044)" stroke="none"><path fill="#ffec99" d="M 0.11,-2.45 Q 0.11,-2.45 2.10,-2.24 4.09,-2.03 5.83,-1.87 7.57,-1.72 9.01,-1.68 10.45,-1.64 11.82,-1.65 13.19,-1.65 14.44,-1.68 15.68,-1.71 17.68,-1.80 19.69,-1.88 21.44,-1.96 23.20,-2.04 24.70,-2.24 26.20,-2.44 27.42,-2.61 28.65,-2.77 30.06,-2.92 31.48,-3.08 32.59,-3.22 33.71,-3.36 35.03,-3.64 36.34,-3.92 37.45,-3.98 38.56,-4.05 40.01,-4.07 41.47,-4.10 43.17,-4.26 44.88,-4.43 46.01,-4.45 47.15,-4.47 48.24,-4.61 49.33,-4.76 50.61,-4.94 51.88,-5.12 53.12,-5.18 54.35,-5.23 56.60,-5.25 58.86,-5.27 59.44,-5.18 60.02,-5.08 60.53,-4.81 61.05,-4.53 61.45,-4.11 61.86,-3.68 62.10,-3.15 62.35,-2.62 62.41,-2.03 62.48,-1.45 62.35,-0.88 62.22,-0.31 61.92,0.18 61.62,0.69 61.17,1.07 60.73,1.45 60.18,1.66 59.64,1.88 59.05,1.91 58.47,1.94 57.90,1.79 57.34,1.63 56.85,1.30 56.37,0.97 56.01,0.50 55.66,0.04 55.47,-0.51 55.28,-1.06 55.28,-1.65 55.28,-2.24 55.47,-2.79 55.66,-3.35 56.01,-3.81 56.37,-4.28 56.85,-4.61 57.34,-4.94 57.90,-5.09 58.47,-5.25 59.05,-5.22 59.64,-5.19 60.18,-4.97 60.73,-4.75 61.17,-4.37 61.62,-3.99 61.92,-3.49 62.22,-2.99 62.35,-2.42 62.48,-1.84 62.41,-1.26 62.35,-0.68 62.10,-0.15 61.86,0.38 61.45,0.80 61.05,1.23 60.53,1.50 60.01,1.77 59.44,1.87 58.86,1.96 58.86,1.96 58.86,1.96 56.64,1.95 54.42,1.93 53.26,1.94 52.09,1.95 50.94,2.09 49.80,2.23 47.98,2.36 46.16,2.49 44.70,2.52 43.24,2.55 41.32,2.65 39.40,2.75 38.32,2.71 37.25,2.68 36.12,2.83 35.00,2.98 33.54,3.05 32.08,3.13 30.81,3.10 29.53,3.07 28.02,3.15 26.51,3.22 24.85,3.29 23.20,3.36 21.44,3.28 19.68,3.20 17.66,3.10 15.64,3.00 14.38,2.95 13.11,2.90 11.69,2.85 10.28,2.80 8.75,2.72 7.22,2.64 5.55,2.53 3.88,2.41 1.88,2.43 -0.11,2.45 -0.40,2.40 -0.70,2.35 -0.97,2.23 -1.24,2.11 -1.48,1.94 -1.71,1.76 -1.90,1.52 -2.08,1.29 -2.21,1.02 -2.33,0.76 -2.39,0.47 -2.45,0.17 -2.43,-0.11 -2.42,-0.41 -2.33,-0.69 -2.25,-0.98 -2.10,-1.23 -1.95,-1.49 -1.74,-1.70 -1.54,-1.91 -1.28,-2.07 -1.03,-2.22 -0.75,-2.32 -0.47,-2.41 -0.17,-2.43 0.11,-2.45 0.11,-2.45 L 0.11,-2.45 Z"></path></g><g transform="translate(62.96747075570602 44.62853278284558) rotate(0 19.18024685157934 36.54167719137007)" stroke="none"><path fill="#ffec99" d="M 1.86,1.72 Q 1.86,1.72 0.68,2.92 -0.48,4.12 -1.20,5.01 -1.91,5.90 -2.54,6.80 -3.18,7.71 -3.94,8.77 -4.70,9.84 -5.36,10.90 -6.02,11.95 -6.56,12.95 -7.09,13.95 -7.73,15.31 -8.37,16.68 -8.56,17.02 -8.74,17.36 -8.94,17.64 -9.13,17.92 -9.38,18.15 -9.64,18.37 -9.94,18.53 -10.24,18.69 -10.57,18.77 -10.90,18.86 -11.24,18.86 -11.58,18.86 -11.92,18.78 -12.25,18.70 -12.55,18.54 -12.85,18.38 -13.11,18.16 -13.36,17.93 -13.56,17.65 -13.75,17.37 -13.87,17.05 -14.00,16.73 -14.04,16.40 -14.08,16.06 -14.04,15.72 -14.00,15.38 -13.88,15.06 -13.76,14.74 -12.85,13.71 -11.95,12.68 -11.19,11.87 -10.43,11.05 -9.63,10.24 -8.83,9.42 -7.76,8.47 -6.68,7.52 -5.68,6.75 -4.68,5.99 -3.54,5.27 -2.40,4.55 -1.47,3.96 -0.54,3.37 0.65,2.62 1.84,1.86 1.95,1.85 2.06,1.84 2.38,1.68 2.70,1.52 3.05,1.44 3.40,1.36 3.76,1.37 4.12,1.38 4.47,1.47 4.82,1.57 5.13,1.74 5.44,1.91 5.71,2.16 5.97,2.40 6.17,2.70 6.37,3.00 6.49,3.34 6.61,3.68 6.64,4.04 6.68,4.39 6.63,4.75 6.58,5.11 6.44,5.44 6.31,5.77 6.10,6.06 5.88,6.35 5.61,6.59 5.34,6.82 5.61,8.14 5.88,9.47 5.28,11.61 4.68,13.76 3.88,17.05 3.08,20.33 2.12,24.21 1.16,28.08 0.43,31.04 -0.28,34.00 -1.22,36.49 -2.15,38.98 -2.76,40.55 -3.38,42.13 -3.90,43.27 -4.41,44.40 -4.60,44.77 -4.78,45.13 -4.93,45.33 -5.07,45.54 -5.26,45.70 -5.45,45.86 -5.67,45.97 -5.89,46.08 -6.14,46.14 -6.38,46.19 -6.63,46.19 -6.88,46.18 -7.12,46.12 -7.36,46.05 -7.57,45.93 -7.79,45.81 -7.97,45.65 -8.16,45.48 -8.29,45.27 -8.43,45.06 -8.52,44.83 -8.60,44.59 -8.62,44.35 -8.65,44.10 -8.61,43.85 -8.58,43.61 -8.49,43.38 -8.39,43.15 -8.28,41.89 -8.16,40.63 -7.77,39.22 -7.38,37.80 -6.61,35.79 -5.84,33.78 -5.00,31.52 -4.16,29.26 -3.10,26.66 -2.03,24.05 -0.40,20.81 1.23,17.58 2.32,15.72 3.42,13.86 3.96,12.82 4.51,11.79 4.61,11.76 4.71,11.73 4.85,11.55 4.98,11.38 5.16,11.25 5.34,11.11 5.54,11.02 5.74,10.93 5.96,10.89 6.18,10.86 6.40,10.87 6.62,10.89 6.83,10.95 7.04,11.02 7.23,11.14 7.41,11.25 7.57,11.41 7.72,11.57 7.84,11.76 7.95,11.95 8.01,12.16 8.08,12.37 8.09,12.59 8.10,12.82 8.06,13.03 8.02,13.25 7.92,13.45 7.83,13.65 7.77,14.95 7.70,16.24 7.31,18.17 6.93,20.09 6.33,23.22 5.74,26.35 5.08,30.15 4.43,33.95 3.76,38.04 3.08,42.12 2.50,45.30 1.91,48.48 1.37,50.80 0.82,53.13 0.50,54.49 0.18,55.85 0.09,56.51 0.00,57.17 -0.08,57.37 -0.17,57.57 -0.31,57.74 -0.45,57.91 -0.62,58.04 -0.80,58.18 -1.00,58.26 -1.20,58.35 -1.42,58.39 -1.64,58.43 -1.85,58.41 -2.07,58.39 -2.28,58.32 -2.49,58.26 -2.68,58.14 -2.86,58.02 -3.02,57.87 -3.17,57.71 -3.28,57.52 -3.39,57.33 -3.46,57.12 -3.52,56.91 -3.53,56.69 -3.54,56.47 -3.50,56.25 -3.45,56.04 -3.73,54.58 -4.00,53.13 -3.80,50.98 -3.59,48.84 -3.08,45.65 -2.58,42.45 -1.96,39.74 -1.34,37.02 -0.20,33.36 0.94,29.70 2.11,26.79 3.28,23.88 4.66,21.27 6.04,18.66 7.43,16.65 8.81,14.65 9.97,13.37 11.13,12.09 11.99,11.42 12.85,10.74 14.12,10.63 15.40,10.53 16.42,11.28 17.44,12.03 18.06,13.77 18.67,15.52 18.86,18.60 19.06,21.69 19.09,24.68 19.12,27.67 19.11,32.27 19.10,36.87 19.07,40.43 19.05,44.00 18.93,47.62 18.81,51.25 18.46,54.36 18.11,57.47 17.70,59.43 17.30,61.39 16.90,62.79 16.50,64.19 16.20,64.85 15.91,65.52 15.80,65.72 15.70,65.92 15.55,66.10 15.40,66.27 15.21,66.40 15.03,66.53 14.81,66.62 14.60,66.70 14.37,66.73 14.15,66.76 13.92,66.74 13.69,66.71 13.48,66.63 13.26,66.55 13.08,66.43 12.89,66.30 12.73,66.13 12.58,65.96 12.47,65.76 12.36,65.56 12.30,65.34 12.25,65.12 12.24,64.89 12.24,64.66 12.29,64.44 12.35,64.21 11.40,61.35 10.46,58.48 10.23,55.47 10.00,52.46 9.93,49.54 9.85,46.63 10.03,43.72 10.20,40.81 11.07,37.38 11.93,33.95 13.11,31.46 14.28,28.98 16.06,26.95 17.83,24.91 20.44,24.05 23.05,23.19 25.05,23.40 27.05,23.61 29.11,25.44 31.18,27.27 32.61,29.87 34.03,32.47 35.11,36.10 36.18,39.74 36.91,43.77 37.64,47.80 37.95,51.64 38.26,55.49 38.29,58.39 38.32,61.29 37.43,63.87 36.54,66.45 34.89,68.34 33.24,70.22 30.38,71.46 27.52,72.70 23.83,73.02 20.14,73.33 15.92,72.58 11.70,71.83 7.77,70.34 3.84,68.85 -0.16,66.47 -4.17,64.09 -7.27,61.21 -10.37,58.33 -12.21,55.70 -14.04,53.07 -14.96,50.60 -15.87,48.13 -15.79,45.47 -15.70,42.82 -14.97,40.80 -14.24,38.78 -12.55,36.96 -10.86,35.14 -7.94,33.58 -5.01,32.01 -1.82,31.07 1.36,30.12 4.56,29.63 7.76,29.14 10.95,28.93 14.15,28.73 17.65,29.42 21.15,30.11 23.77,31.41 26.40,32.71 28.18,34.41 29.96,36.10 30.98,38.20 31.99,40.29 32.32,42.82 32.65,45.36 32.19,47.87 31.72,50.39 31.07,52.27 30.42,54.15 29.21,55.99 27.99,57.83 26.03,59.45 24.07,61.07 21.86,62.32 19.66,63.58 17.21,64.42 14.77,65.26 11.47,65.71 8.17,66.17 5.23,66.26 2.29,66.35 -0.66,65.90 -3.62,65.45 -6.33,64.26 -9.04,63.06 -11.13,61.34 -13.21,59.61 -14.46,57.61 -15.70,55.62 -16.28,53.51 -16.85,51.40 -16.47,48.97 -16.09,46.55 -14.59,44.16 -13.09,41.77 -10.81,40.02 -8.53,38.28 -5.08,37.05 -1.63,35.81 2.73,35.20 7.10,34.59 12.23,34.63 17.36,34.66 22.55,35.45 27.73,36.23 32.38,37.83 37.04,39.42 40.60,41.38 44.15,43.33 47.09,46.14 50.02,48.95 51.69,51.56 53.35,54.16 54.08,55.84 54.80,57.51 54.65,59.19 54.51,60.86 53.58,62.04 52.65,63.21 51.41,63.85 50.17,64.50 48.98,64.80 47.79,65.10 45.75,65.10 43.72,65.10 42.53,64.88 41.34,64.66 39.97,64.37 38.59,64.08 36.96,63.81 35.33,63.55 33.75,63.34 32.17,63.14 30.80,63.07 29.44,63.01 26.93,62.99 24.43,62.97 24.04,62.90 23.65,62.83 23.30,62.64 22.95,62.44 22.68,62.15 22.41,61.86 22.25,61.50 22.09,61.13 22.05,60.74 22.02,60.34 22.11,59.96 22.20,59.57 22.41,59.23 22.62,58.89 22.93,58.64 23.23,58.39 23.60,58.25 23.97,58.11 24.37,58.09 24.77,58.08 25.15,58.19 25.53,58.30 25.86,58.53 26.18,58.75 26.42,59.07 26.65,59.39 26.77,59.77 26.89,60.15 26.89,60.55 26.88,60.95 26.75,61.32 26.62,61.69 26.37,62.01 26.13,62.32 25.80,62.54 25.46,62.76 25.08,62.86 24.70,62.96 24.30,62.93 23.90,62.90 23.54,62.75 23.17,62.60 22.87,62.33 22.57,62.07 22.37,61.73 22.17,61.39 22.09,61.00 22.01,60.61 22.06,60.21 22.11,59.82 22.28,59.46 22.46,59.10 22.73,58.82 23.01,58.54 23.36,58.35 23.72,58.17 24.11,58.12 24.50,58.06 24.50,58.06 24.50,58.06 27.10,58.15 29.70,58.25 31.21,58.35 32.72,58.44 34.32,58.61 35.93,58.78 37.77,58.95 39.61,59.13 41.95,59.67 44.28,60.21 45.67,60.46 47.06,60.72 48.60,60.53 50.13,60.35 51.05,59.34 51.97,58.33 51.55,56.94 51.13,55.56 49.65,53.19 48.18,50.83 45.52,48.23 42.86,45.62 39.52,43.77 36.17,41.92 31.75,40.38 27.32,38.84 22.33,38.08 17.34,37.31 12.40,37.27 7.46,37.23 3.34,37.78 -0.76,38.33 -3.86,39.39 -6.96,40.45 -8.91,41.87 -10.86,43.28 -12.15,45.19 -13.43,47.09 -13.79,48.96 -14.16,50.83 -13.79,52.56 -13.43,54.29 -12.45,55.95 -11.48,57.62 -9.70,59.14 -7.93,60.66 -5.56,61.74 -3.19,62.82 -0.48,63.25 2.22,63.67 5.01,63.58 7.81,63.50 10.86,63.09 13.90,62.68 16.10,61.93 18.30,61.18 20.30,60.03 22.30,58.89 23.96,57.54 25.63,56.20 26.69,54.66 27.76,53.11 28.44,51.50 29.13,49.88 29.57,47.75 30.01,45.63 29.79,43.50 29.56,41.37 28.82,39.66 28.08,37.94 26.63,36.50 25.18,35.05 22.89,33.88 20.60,32.70 17.45,32.04 14.29,31.39 11.23,31.59 8.17,31.79 5.14,32.25 2.12,32.71 -0.81,33.57 -3.76,34.42 -6.33,35.75 -8.90,37.08 -10.29,38.49 -11.68,39.89 -12.38,41.44 -13.08,42.99 -13.24,45.15 -13.39,47.31 -12.63,49.45 -11.87,51.59 -10.22,54.00 -8.56,56.41 -5.68,59.13 -2.81,61.84 0.98,64.12 4.78,66.39 8.48,67.82 12.18,69.24 16.07,69.97 19.95,70.70 23.25,70.47 26.55,70.24 28.96,69.31 31.36,68.37 32.71,66.93 34.06,65.49 34.85,63.37 35.64,61.26 35.60,58.48 35.56,55.71 35.25,52.00 34.94,48.29 34.22,44.41 33.51,40.53 32.51,37.17 31.52,33.82 30.33,31.60 29.13,29.38 27.71,27.94 26.28,26.49 24.99,26.15 23.71,25.81 21.72,26.33 19.72,26.86 18.27,28.53 16.82,30.21 15.78,32.43 14.74,34.65 13.96,37.81 13.19,40.97 13.09,43.73 12.98,46.50 13.15,49.32 13.31,52.14 13.65,55.02 13.99,57.90 14.40,60.37 14.81,62.83 15.36,64.18 15.91,65.52 15.80,65.72 15.70,65.92 15.55,66.10 15.40,66.27 15.21,66.40 15.03,66.53 14.81,66.62 14.60,66.70 14.38,66.73 14.15,66.76 13.92,66.74 13.69,66.71 13.48,66.63 13.27,66.55 13.08,66.43 12.89,66.30 12.73,66.13 12.58,65.96 12.47,65.76 12.36,65.56 12.30,65.34 12.25,65.12 12.24,64.89 12.24,64.66 12.29,64.44 12.35,64.21 12.82,63.61 13.30,63.00 13.83,61.86 14.37,60.72 14.80,58.95 15.24,57.17 15.54,54.17 15.83,51.18 15.88,47.60 15.94,44.01 15.87,40.46 15.80,36.90 15.70,32.35 15.59,27.80 15.39,24.92 15.20,22.04 14.86,19.37 14.52,16.70 13.90,15.51 13.29,14.33 12.18,15.27 11.06,16.21 9.79,18.08 8.51,19.95 7.22,22.44 5.93,24.93 4.84,27.74 3.74,30.56 2.69,34.11 1.63,37.66 1.11,40.28 0.59,42.90 0.20,46.01 -0.18,49.11 -0.29,51.04 -0.40,52.97 -0.20,55.07 0.00,57.17 -0.08,57.37 -0.17,57.57 -0.31,57.74 -0.45,57.91 -0.62,58.04 -0.80,58.18 -1.00,58.26 -1.20,58.35 -1.42,58.39 -1.63,58.43 -1.85,58.41 -2.07,58.39 -2.28,58.32 -2.49,58.26 -2.68,58.14 -2.86,58.02 -3.02,57.87 -3.17,57.71 -3.28,57.52 -3.39,57.33 -3.46,57.12 -3.52,56.91 -3.53,56.69 -3.54,56.47 -3.50,56.25 -3.45,56.04 -3.19,55.43 -2.93,54.83 -2.42,53.67 -1.92,52.50 -1.43,50.24 -0.93,47.97 -0.40,44.82 0.12,41.66 0.72,37.56 1.33,33.46 1.89,29.63 2.45,25.79 2.93,22.59 3.40,19.40 3.74,17.62 4.09,15.83 4.40,13.78 4.71,11.73 4.85,11.55 4.98,11.38 5.16,11.25 5.33,11.11 5.54,11.02 5.74,10.93 5.96,10.89 6.18,10.86 6.40,10.87 6.62,10.89 6.83,10.95 7.04,11.02 7.23,11.14 7.41,11.25 7.57,11.41 7.72,11.57 7.84,11.76 7.95,11.95 8.01,12.16 8.08,12.37 8.09,12.59 8.10,12.81 8.06,13.03 8.02,13.25 7.92,13.45 7.83,13.65 6.94,14.51 6.06,15.36 5.06,17.16 4.07,18.97 2.59,22.11 1.11,25.25 0.20,27.82 -0.70,30.40 -1.36,32.70 -2.02,35.01 -2.54,37.03 -3.06,39.06 -3.49,40.42 -3.91,41.79 -4.35,43.46 -4.78,45.13 -4.93,45.33 -5.07,45.54 -5.26,45.70 -5.45,45.86 -5.67,45.97 -5.89,46.08 -6.14,46.14 -6.38,46.19 -6.63,46.19 -6.88,46.18 -7.12,46.12 -7.36,46.05 -7.57,45.93 -7.79,45.81 -7.97,45.65 -8.16,45.48 -8.29,45.27 -8.43,45.06 -8.52,44.83 -8.60,44.60 -8.62,44.35 -8.65,44.10 -8.61,43.85 -8.58,43.61 -8.49,43.38 -8.39,43.15 -8.10,42.84 -7.81,42.53 -7.21,41.63 -6.61,40.74 -5.94,39.31 -5.26,37.89 -4.51,35.57 -3.75,33.24 -3.19,30.25 -2.63,27.25 -1.90,23.37 -1.16,19.49 -0.66,16.17 -0.16,12.85 0.05,10.63 0.27,8.41 0.47,7.08 0.66,5.75 1.36,3.79 2.06,1.84 2.38,1.68 2.70,1.52 3.05,1.44 3.40,1.36 3.76,1.37 4.12,1.38 4.47,1.47 4.82,1.57 5.13,1.74 5.44,1.91 5.71,2.16 5.97,2.40 6.17,2.70 6.37,3.00 6.49,3.34 6.61,3.68 6.64,4.04 6.68,4.39 6.63,4.75 6.58,5.10 6.44,5.44 6.31,5.77 6.10,6.06 5.89,6.35 5.61,6.59 5.34,6.82 5.09,6.85 4.84,6.89 3.64,7.55 2.44,8.22 1.53,8.77 0.62,9.32 -1.12,10.51 -2.88,11.70 -3.81,12.57 -4.73,13.45 -5.51,14.23 -6.29,15.02 -7.52,16.19 -8.74,17.36 -8.94,17.64 -9.13,17.92 -9.38,18.15 -9.64,18.37 -9.94,18.53 -10.24,18.69 -10.57,18.77 -10.90,18.86 -11.24,18.86 -11.58,18.86 -11.92,18.78 -12.25,18.70 -12.55,18.54 -12.85,18.38 -13.11,18.16 -13.36,17.93 -13.56,17.65 -13.75,17.37 -13.87,17.05 -14.00,16.73 -14.04,16.40 -14.08,16.06 -14.04,15.72 -14.00,15.38 -13.88,15.06 -13.76,14.74 -13.52,14.43 -13.27,14.12 -12.47,12.75 -11.66,11.39 -11.02,10.29 -10.38,9.19 -9.63,8.01 -8.87,6.82 -8.08,5.75 -7.29,4.67 -6.51,3.66 -5.72,2.66 -4.90,1.73 -4.07,0.81 -2.97,-0.45 -1.86,-1.72 -1.63,-1.91 -1.39,-2.11 -1.12,-2.25 -0.85,-2.39 -0.55,-2.45 -0.25,-2.52 0.05,-2.51 0.35,-2.51 0.65,-2.43 0.94,-2.35 1.21,-2.20 1.48,-2.05 1.70,-1.85 1.93,-1.64 2.10,-1.38 2.27,-1.13 2.37,-0.84 2.47,-0.55 2.50,-0.25 2.53,0.05 2.49,0.35 2.45,0.65 2.33,0.94 2.22,1.22 2.04,1.47 1.86,1.72 1.86,1.72 L 1.86,1.72 Z"></path></g><g transform="translate(93.39131058924522 94.23261946796333) rotate(0 -7.440613002767805 10.2515112482576)" stroke="none"><path fill="#ffec99" d="M 0.09,1.80 Q 0.09,1.80 -1.70,1.90 -3.50,2.00 -4.72,2.44 -5.93,2.88 -7.38,3.51 -8.83,4.14 -10.29,5.13 -11.75,6.13 -13.01,7.29 -14.27,8.45 -15.77,10.09 -17.28,11.73 -18.76,13.89 -20.25,16.04 -21.35,18.14 -22.45,20.24 -22.95,21.92 -23.44,23.61 -22.20,24.35 -20.96,25.10 -19.90,24.76 -18.83,24.42 -17.31,23.87 -15.78,23.32 -14.09,22.58 -12.40,21.84 -10.67,20.86 -8.93,19.88 -7.35,18.74 -5.78,17.60 -4.48,16.44 -3.19,15.28 -1.90,13.91 -0.61,12.54 0.47,11.12 1.55,9.70 2.69,7.87 3.83,6.03 4.55,4.41 5.27,2.79 5.70,1.36 6.13,-0.05 6.24,-1.20 6.35,-2.34 5.67,-3.31 5.00,-4.28 3.16,-4.46 1.33,-4.65 -0.10,-4.64 -1.54,-4.63 -2.93,-4.30 -4.32,-3.97 -6.11,-3.31 -7.90,-2.65 -9.70,-1.69 -11.50,-0.72 -13.62,1.11 -15.75,2.94 -17.33,4.64 -18.91,6.33 -19.79,8.05 -20.68,9.77 -20.96,11.12 -21.24,12.47 -20.13,12.91 -19.02,13.36 -17.80,13.24 -16.58,13.11 -14.44,12.83 -12.29,12.55 -10.00,11.92 -7.70,11.28 -5.17,10.47 -2.64,9.65 -0.00,8.49 2.63,7.33 4.77,6.11 6.91,4.90 8.51,3.92 10.12,2.95 10.35,2.85 10.59,2.76 10.84,2.75 11.09,2.74 11.34,2.81 11.58,2.88 11.79,3.03 12.00,3.17 12.15,3.37 12.30,3.58 12.38,3.82 12.45,4.06 12.45,4.31 12.45,4.56 12.36,4.80 12.28,5.04 12.13,5.24 11.97,5.44 11.76,5.58 11.55,5.72 11.30,5.79 11.06,5.85 10.81,5.83 10.55,5.82 10.32,5.72 10.09,5.62 9.90,5.46 9.70,5.29 9.58,5.07 9.45,4.86 9.40,4.61 9.35,4.36 9.38,4.11 9.41,3.86 9.52,3.63 9.62,3.40 9.80,3.22 9.98,3.04 10.20,2.92 10.43,2.81 10.68,2.77 10.93,2.73 11.18,2.77 11.42,2.82 11.65,2.94 11.87,3.06 12.04,3.25 12.21,3.43 12.32,3.66 12.42,3.89 12.44,4.14 12.47,4.40 12.41,4.64 12.35,4.89 12.22,5.10 12.09,5.32 11.89,5.48 11.70,5.64 11.70,5.64 11.70,5.64 10.06,6.57 8.43,7.49 6.19,8.84 3.94,10.19 1.20,11.50 -1.54,12.81 -4.08,13.77 -6.62,14.73 -9.10,15.59 -11.57,16.45 -13.95,17.00 -16.32,17.55 -18.13,17.60 -19.93,17.65 -21.46,17.10 -22.98,16.56 -23.77,15.41 -24.57,14.26 -24.53,12.93 -24.49,11.60 -23.95,10.00 -23.40,8.40 -22.35,6.31 -21.30,4.22 -19.66,2.31 -18.03,0.41 -15.71,-1.73 -13.40,-3.89 -11.46,-5.15 -9.52,-6.41 -7.45,-7.41 -5.38,-8.41 -3.50,-8.86 -1.62,-9.31 0.16,-9.34 1.95,-9.37 3.53,-9.11 5.11,-8.84 6.64,-8.10 8.17,-7.35 9.03,-6.07 9.89,-4.79 10.04,-3.27 10.19,-1.76 9.85,-0.32 9.52,1.12 8.91,2.65 8.31,4.18 7.48,5.93 6.65,7.68 5.49,9.76 4.33,11.84 3.14,13.37 1.96,14.90 0.57,16.45 -0.80,17.99 -2.21,19.21 -3.61,20.43 -5.27,21.76 -6.93,23.09 -8.76,24.34 -10.60,25.60 -12.39,26.53 -14.19,27.47 -15.94,28.17 -17.70,28.87 -19.43,29.24 -21.16,29.61 -22.62,29.37 -24.08,29.14 -25.11,28.31 -26.14,27.48 -26.49,26.35 -26.83,25.22 -26.64,23.95 -26.45,22.68 -25.81,20.78 -25.17,18.87 -24.04,16.57 -22.92,14.27 -21.39,11.89 -19.87,9.50 -18.32,7.61 -16.78,5.72 -15.34,4.40 -13.90,3.08 -12.13,1.81 -10.36,0.53 -8.69,-0.14 -7.02,-0.81 -5.37,-1.22 -3.71,-1.62 -1.90,-1.71 -0.09,-1.80 0.12,-1.78 0.33,-1.77 0.54,-1.70 0.75,-1.63 0.93,-1.52 1.12,-1.41 1.27,-1.25 1.42,-1.10 1.53,-0.91 1.64,-0.72 1.71,-0.51 1.77,-0.31 1.78,-0.09 1.79,0.12 1.75,0.33 1.71,0.54 1.62,0.74 1.53,0.94 1.40,1.11 1.26,1.28 1.09,1.41 0.92,1.55 0.72,1.63 0.52,1.72 0.30,1.76 0.09,1.80 0.09,1.80 L 0.09,1.80 Z"></path></g><g transform="translate(62.96747075570602 60.17114661084918) rotate(0 20.99906336336653 -4.629714757277668)" stroke="none"><path fill="#ffec99" d="M -8.63,3.59 Q -8.63,3.59 -9.24,2.52 -9.85,1.44 -8.56,-6.31 -7.26,-14.08 -3.21,-15.88 0.83,-17.67 5.21,-18.12 9.59,-18.56 13.88,-19.15 18.18,-19.74 22.74,-20.45 27.29,-21.16 31.52,-21.58 35.75,-22.00 38.60,-22.30 41.45,-22.60 43.67,-22.76 45.88,-22.92 48.03,-22.36 50.18,-21.81 52.04,-20.59 53.90,-19.38 55.27,-17.64 56.65,-15.89 57.39,-13.80 58.14,-11.71 58.18,-9.49 58.22,-7.27 57.54,-5.16 56.87,-3.04 55.56,-1.25 54.25,0.53 52.43,1.81 50.62,3.09 48.49,3.72 46.36,4.35 44.14,4.27 41.92,4.18 39.85,3.40 37.77,2.61 36.05,1.21 34.34,-0.19 33.16,-2.07 31.98,-3.95 31.47,-6.11 30.95,-8.27 31.15,-10.48 31.36,-12.69 32.25,-14.72 33.15,-16.76 34.65,-18.39 36.15,-20.03 38.09,-21.11 40.03,-22.18 42.22,-22.58 44.40,-22.97 46.60,-22.65 48.79,-22.33 50.77,-21.33 52.75,-20.32 54.31,-18.73 55.86,-17.15 56.83,-15.15 57.79,-13.15 58.07,-10.95 58.35,-8.75 57.91,-6.57 57.47,-4.40 56.36,-2.48 55.25,-0.55 53.58,0.90 51.91,2.37 49.87,3.23 47.82,4.08 47.82,4.08 47.82,4.08 47.69,3.64 47.57,3.19 43.21,4.08 38.86,4.96 34.57,3.92 30.28,2.88 24.75,3.95 19.22,5.01 14.40,4.84 9.59,4.67 5.78,2.70 1.98,0.73 4.96,-2.63 7.95,-6.01 8.29,-4.80 8.63,-3.59 8.94,-2.51 9.24,-1.42 9.28,-0.29 9.32,0.82 9.08,1.93 8.85,3.03 8.35,4.04 7.86,5.06 7.14,5.93 6.42,6.79 5.52,7.47 4.61,8.14 3.57,8.57 2.53,9.00 1.41,9.17 0.30,9.35 -0.82,9.25 -1.94,9.15 -3.01,8.78 -4.07,8.42 -5.02,7.81 -5.97,7.19 -6.75,6.38 -7.52,5.56 -8.08,4.57 -8.63,3.59 -8.63,3.59 L -8.63,3.59 Z"></path></g><g transform="translate(61.644695110770044 67.44641265799976) rotate(0 23.479267697622163 29.431758099836486)" stroke="none"><path fill="#ffec99" d="M 7.67,5.75 Q 7.67,5.75 6.68,7.39 5.69,9.02 3.89,12.89 2.08,16.75 3.11,21.13 4.13,25.52 3.90,30.45 3.67,35.37 2.73,39.88 1.80,44.38 -1.13,41.28 -4.06,38.18 0.49,38.86 5.04,39.53 9.35,39.76 13.65,39.99 17.93,40.24 22.20,40.49 26.96,40.56 31.72,40.64 32.91,40.62 34.10,40.60 35.89,40.82 37.67,41.04 39.36,41.68 41.04,42.31 42.53,43.34 44.01,44.36 45.20,45.71 46.40,47.06 47.24,48.66 48.07,50.25 48.51,52.00 48.94,53.75 48.94,55.55 48.94,57.36 48.50,59.10 48.07,60.85 47.24,62.45 46.40,64.05 45.20,65.39 44.01,66.74 42.52,67.77 41.04,68.79 39.36,69.43 37.67,70.07 35.88,70.28 34.09,70.50 28.47,71.30 22.85,72.10 17.40,72.18 11.95,72.26 7.43,72.38 2.92,72.50 -4.98,66.60 -12.90,60.70 -13.91,55.43 -14.92,50.17 -13.85,45.92 -12.78,41.67 -11.23,36.17 -9.67,30.67 -8.10,26.02 -6.52,21.37 -4.29,17.39 -2.06,13.41 0.62,9.03 3.31,4.65 4.36,0.48 5.41,-3.69 9.45,-8.23 13.49,-12.76 18.21,-14.82 22.94,-16.89 27.33,-17.10 31.73,-17.32 37.21,-17.20 42.70,-17.09 47.23,-15.93 51.75,-14.76 55.69,-12.56 59.64,-10.36 61.32,-5.71 63.01,-1.06 63.53,3.67 64.04,8.42 65.96,13.30 67.87,18.17 68.74,22.56 69.61,26.95 70.90,31.69 72.20,36.43 72.82,40.72 73.44,45.00 72.33,50.36 71.22,55.71 66.86,60.88 62.50,66.04 65.58,62.64 68.65,59.25 64.52,63.44 60.38,67.64 56.20,69.63 52.02,71.63 47.84,72.75 43.67,73.88 39.41,74.65 35.16,75.41 30.34,75.89 25.52,76.36 20.72,76.26 15.92,76.16 11.55,75.69 7.18,75.21 2.61,74.74 -1.95,74.27 -8.90,71.07 -15.85,67.87 -17.68,63.57 -19.50,59.27 -18.62,54.33 -17.73,49.40 -14.01,44.86 -10.29,40.32 -6.78,37.71 -3.26,35.10 0.78,32.37 4.84,29.63 7.98,26.44 11.13,23.24 13.01,21.58 14.89,19.92 17.21,18.95 19.52,17.97 22.02,17.79 24.53,17.61 26.96,18.23 29.39,18.86 31.50,20.23 33.60,21.60 35.16,23.57 36.71,25.54 37.56,27.90 38.41,30.26 38.46,32.77 38.50,35.28 37.75,37.68 36.99,40.07 35.51,42.10 34.03,44.13 31.98,45.58 29.93,47.02 27.52,47.74 25.11,48.46 22.60,48.37 20.09,48.28 17.75,47.40 15.40,46.51 13.45,44.92 11.51,43.33 10.17,41.21 8.84,39.08 8.25,36.64 7.67,34.20 7.89,31.70 8.11,29.20 9.13,26.90 10.14,24.60 11.83,22.74 13.52,20.89 15.72,19.67 17.91,18.45 20.38,18.00 22.85,17.55 25.34,17.91 27.82,18.27 30.06,19.40 32.30,20.54 34.06,22.33 35.82,24.12 36.92,26.37 38.02,28.63 38.34,31.12 38.65,33.61 38.16,36.08 37.67,38.54 36.41,40.71 35.16,42.89 35.16,42.89 35.16,42.88 31.83,46.55 28.49,50.22 24.35,53.46 20.21,56.70 15.87,56.97 11.54,57.23 9.88,52.72 8.22,48.20 4.36,45.88 0.51,43.55 4.78,43.78 9.06,44.01 14.23,44.61 19.40,45.21 23.86,45.06 28.32,44.90 33.38,43.99 38.44,43.08 42.81,41.19 47.19,39.29 43.59,43.04 39.99,46.79 43.49,42.85 46.98,38.90 44.99,43.08 43.00,47.26 41.94,42.92 40.87,38.58 39.56,32.99 38.24,27.41 36.52,22.50 34.80,17.59 34.76,12.51 34.71,7.44 37.87,10.52 41.02,13.61 36.31,13.21 31.60,12.81 29.90,16.96 28.19,21.11 25.71,25.21 23.22,29.30 21.07,33.65 18.92,38.00 17.81,42.11 16.70,46.22 13.91,50.24 11.12,54.25 8.51,48.63 5.89,43.01 10.95,42.81 16.00,42.61 20.96,42.89 25.92,43.16 30.01,41.88 34.09,40.60 35.88,40.82 37.67,41.04 39.36,41.67 41.04,42.31 42.53,43.34 44.01,44.36 45.20,45.71 46.40,47.06 47.24,48.65 48.07,50.25 48.50,52.00 48.94,53.75 48.94,55.55 48.94,57.35 48.50,59.10 48.07,60.85 47.24,62.45 46.40,64.04 45.20,65.39 44.01,66.74 42.53,67.77 41.04,68.79 39.36,69.43 37.67,70.07 35.88,70.28 34.09,70.50 29.85,70.43 25.60,70.35 21.33,69.93 17.05,69.51 12.25,68.91 7.44,68.31 2.83,67.97 -1.77,67.64 -6.82,66.55 -11.88,65.46 -16.06,62.51 -20.23,59.55 -22.40,54.11 -24.56,48.68 -24.37,43.95 -24.17,39.23 -22.74,34.59 -21.31,29.94 -20.79,25.29 -20.28,20.64 -19.71,16.26 -19.14,11.89 -17.58,7.78 -16.02,3.67 -13.14,0.36 -10.26,-2.94 -8.96,-4.34 -7.67,-5.75 -6.87,-6.59 -6.07,-7.42 -5.09,-8.04 -4.12,-8.66 -3.02,-9.02 -1.92,-9.39 -0.77,-9.49 0.37,-9.58 1.51,-9.40 2.66,-9.21 3.72,-8.76 4.78,-8.31 5.71,-7.61 6.63,-6.92 7.37,-6.02 8.10,-5.13 8.59,-4.08 9.09,-3.04 9.32,-1.91 9.56,-0.78 9.51,0.37 9.46,1.53 9.14,2.64 8.82,3.75 8.25,4.75 7.67,5.75 7.67,5.75 L 7.67,5.75 Z"></path></g><g transform="translate(91.40714712184035 84.64249604217389) rotate(0 18.5188590291109 19.510940762812936)" stroke="none"><path fill="#ffec99" d="M 7.85,-5.54 Q 7.85,-5.54 9.15,-4.03 10.45,-2.53 12.97,1.52 15.48,5.57 17.40,10.16 19.31,14.75 21.72,18.38 24.12,22.01 27.20,25.09 30.28,28.17 27.57,33.13 24.86,38.08 25.31,43.11 25.77,48.14 22.88,42.17 19.98,36.20 20.17,33.92 20.35,31.65 21.25,29.55 22.15,27.45 23.68,25.75 25.20,24.05 27.19,22.92 29.18,21.79 31.43,21.36 33.67,20.93 35.93,21.24 38.20,21.55 40.24,22.56 42.29,23.58 43.91,25.19 45.52,26.81 46.54,28.85 47.55,30.90 47.86,33.16 48.17,35.43 47.74,37.67 47.31,39.91 46.19,41.90 45.07,43.89 43.37,45.42 41.67,46.95 39.57,47.85 37.47,48.75 35.19,48.94 32.91,49.12 30.70,48.57 28.48,48.02 26.55,46.79 24.63,45.56 23.20,43.78 21.77,42.00 20.98,39.86 20.19,37.71 20.13,35.43 20.06,33.15 20.73,30.96 21.40,28.78 22.74,26.92 24.07,25.06 25.92,23.73 27.78,22.40 29.96,21.73 32.15,21.06 34.43,21.12 36.72,21.18 38.86,21.97 41.00,22.75 42.79,24.19 44.57,25.62 45.80,27.54 47.03,29.47 47.58,31.68 48.13,33.90 48.13,33.90 48.13,33.90 47.70,32.44 47.26,30.99 47.93,36.55 48.60,42.10 43.92,48.04 39.24,53.98 33.21,53.78 27.18,53.58 22.80,52.58 18.43,51.58 14.74,48.86 11.05,46.13 7.95,42.31 4.85,38.48 2.50,33.90 0.16,29.33 -1.66,24.02 -3.49,18.72 -4.69,13.86 -5.88,8.99 -6.87,7.26 -7.85,5.54 -8.40,4.52 -8.95,3.50 -9.24,2.38 -9.52,1.25 -9.54,0.10 -9.55,-1.05 -9.28,-2.18 -9.02,-3.31 -8.49,-4.34 -7.96,-5.37 -7.20,-6.25 -6.44,-7.12 -5.50,-7.79 -4.55,-8.46 -3.47,-8.88 -2.39,-9.30 -1.24,-9.45 -0.10,-9.61 1.05,-9.48 2.20,-9.35 3.29,-8.95 4.37,-8.55 5.33,-7.90 6.29,-7.26 7.07,-6.40 7.85,-5.54 7.85,-5.54 L 7.85,-5.54 Z"></path></g><g stroke-linecap="round"><g transform="translate(61.27706090166066 90.08462028424879) rotate(0 10.327813847436119 -4.874728135989528)"><path d="M0 0 C1.76 -1.62, 7.13 -9.47, 10.58 -9.75 C14.02 -10.02, 18.98 -3, 20.66 -1.65 M0 0 C1.76 -1.62, 7.13 -9.47, 10.58 -9.75 C14.02 -10.02, 18.98 -3, 20.66 -1.65" stroke="#1e1e1e" stroke-width="2" fill="none"></path></g></g><mask></mask><g stroke-linecap="round"><g transform="translate(90.33584056339805 88.66258625980151) rotate(0 10.327813847436119 -4.874728135989528)"><path d="M0 0 C1.76 -1.62, 7.13 -9.47, 10.58 -9.75 C14.02 -10.02, 18.98 -3, 20.66 -1.65 M0 0 C1.76 -1.62, 7.13 -9.47, 10.58 -9.75 C14.02 -10.02, 18.98 -3, 20.66 -1.65" stroke="#1e1e1e" stroke-width="2" fill="none"></path></g></g><mask></mask><g stroke-linecap="round"><g transform="translate(73.52224640860004 108.60690626851715) rotate(0 13.277855994404035 2.2646600702145747)"><path d="M0 0 C2.2 0.85, 8.77 5.21, 13.2 5.11 C17.62 5.01, 24.33 0.37, 26.56 -0.58 M0 0 C2.2 0.85, 8.77 5.21, 13.2 5.11 C17.62 5.01, 24.33 0.37, 26.56 -0.58" stroke="#1e1e1e" stroke-width="2" fill="none"></path></g></g><mask></mask><g transform="translate(63.004827788892726 49.30264688749628) rotate(0 0.00005000000010113581 0.00004999999998744897)" stroke="none"><path fill="#ffec99" d="M 1.57,-1.57 Q 1.57,-1.57 1.77,-1.27 1.98,-0.98 2.09,-0.64 2.20,-0.29 2.19,0.05 2.18,0.41 2.05,0.75 1.93,1.09 1.70,1.37 1.48,1.65 1.18,1.84 0.87,2.04 0.52,2.12 0.18,2.21 -0.17,2.18 -0.53,2.15 -0.86,2.01 -1.19,1.87 -1.46,1.63 -1.73,1.39 -1.90,1.07 -2.08,0.76 -2.15,0.41 -2.21,0.05 -2.17,-0.29 -2.12,-0.65 -1.96,-0.97 -1.80,-1.29 -1.54,-1.54 -1.29,-1.80 -0.97,-1.96 -0.65,-2.12 -0.29,-2.17 0.06,-2.21 0.41,-2.15 0.76,-2.08 1.07,-1.90 1.39,-1.73 1.63,-1.46 1.87,-1.19 2.01,-0.86 2.15,-0.53 2.18,-0.17 2.21,0.18 2.12,0.52 2.03,0.87 1.84,1.18 1.65,1.48 1.37,1.70 1.09,1.93 0.75,2.05 0.41,2.18 0.05,2.19 -0.30,2.20 -0.64,2.09 -0.98,1.98 -1.27,1.77 -1.57,1.56 -1.57,1.57 -1.57,1.57 -1.73,1.35 -1.90,1.14 -2.01,0.90 -2.12,0.66 -2.16,0.39 -2.21,0.13 -2.20,-0.13 -2.18,-0.40 -2.10,-0.65 -2.02,-0.91 -1.88,-1.14 -1.74,-1.36 -1.55,-1.55 -1.36,-1.74 -1.14,-1.88 -0.91,-2.02 -0.65,-2.10 -0.40,-2.18 -0.13,-2.20 0.13,-2.21 0.39,-2.16 0.66,-2.12 0.90,-2.01 1.14,-1.90 1.35,-1.73 1.57,-1.57 1.57,-1.57 L 1.57,-1.57 Z"></path></g><g transform="translate(55.90106634291442 45.91990334179263) rotate(0 4.059292254844422 1.3530974182814361)" stroke="none"><path fill="#ffec99" d="M 1.37,-2.18 Q 1.37,-2.18 2.31,-1.62 3.25,-1.06 5.81,-0.58 8.37,-0.09 8.81,0.01 9.25,0.13 9.63,0.38 10.01,0.62 10.29,0.98 10.58,1.34 10.73,1.77 10.88,2.20 10.89,2.65 10.90,3.11 10.76,3.54 10.62,3.98 10.35,4.34 10.08,4.71 9.71,4.97 9.34,5.23 8.90,5.36 8.47,5.49 8.01,5.48 7.56,5.46 7.13,5.30 6.71,5.14 6.35,4.85 6.00,4.56 5.76,4.17 5.52,3.79 5.41,3.35 5.31,2.90 5.35,2.45 5.39,2.00 5.57,1.58 5.76,1.16 6.06,0.83 6.37,0.49 6.77,0.27 7.17,0.05 7.62,-0.02 8.06,-0.10 8.51,-0.04 8.97,0.02 9.37,0.23 9.78,0.43 10.10,0.76 10.41,1.08 10.61,1.49 10.81,1.90 10.87,2.35 10.93,2.80 10.84,3.25 10.75,3.70 10.52,4.09 10.29,4.49 9.95,4.79 9.61,5.09 9.19,5.26 8.77,5.44 8.31,5.47 7.86,5.50 7.86,5.50 7.86,5.50 5.86,5.18 3.86,4.86 2.15,4.13 0.44,3.40 -0.46,2.79 -1.37,2.18 -1.62,1.98 -1.86,1.79 -2.04,1.54 -2.23,1.29 -2.35,1.00 -2.48,0.72 -2.53,0.41 -2.58,0.10 -2.55,-0.20 -2.53,-0.51 -2.43,-0.81 -2.33,-1.10 -2.16,-1.36 -2.00,-1.63 -1.77,-1.84 -1.55,-2.06 -1.28,-2.22 -1.01,-2.37 -0.71,-2.46 -0.41,-2.55 -0.10,-2.56 0.20,-2.57 0.51,-2.51 0.81,-2.45 1.09,-2.31 1.38,-2.18 1.37,-2.18 L 1.37,-2.18 Z"></path></g><g stroke-linecap="round" transform="translate(52.09656418380928 27.08576069442597) rotate(0 33.21428122464613 13.87906765194333)"><path d="M66.43 13.88 C66.43 14.68, 66.26 15.5, 65.92 16.29 C65.59 17.08, 65.08 17.87, 64.43 18.63 C63.77 19.38, 62.94 20.12, 61.98 20.82 C61.02 21.51, 59.89 22.18, 58.66 22.8 C57.42 23.42, 56.04 23.99, 54.56 24.51 C53.09 25.03, 51.49 25.5, 49.82 25.9 C48.16 26.3, 46.38 26.65, 44.57 26.92 C42.77 27.2, 40.88 27.41, 38.98 27.55 C37.09 27.69, 35.14 27.76, 33.21 27.76 C31.29 27.76, 29.34 27.69, 27.45 27.55 C25.55 27.41, 23.66 27.2, 21.85 26.92 C20.05 26.65, 18.27 26.3, 16.61 25.9 C14.94 25.5, 13.34 25.03, 11.86 24.51 C10.39 23.99, 9.01 23.42, 7.77 22.8 C6.53 22.18, 5.41 21.51, 4.45 20.82 C3.49 20.12, 2.66 19.38, 2 18.63 C1.35 17.87, 0.84 17.08, 0.5 16.29 C0.17 15.5, 0 14.68, 0 13.88 C0 13.08, 0.17 12.26, 0.5 11.47 C0.84 10.68, 1.35 9.89, 2 9.13 C2.66 8.38, 3.49 7.64, 4.45 6.94 C5.41 6.24, 6.53 5.57, 7.77 4.96 C9.01 4.34, 10.39 3.76, 11.86 3.25 C13.34 2.73, 14.94 2.26, 16.61 1.86 C18.27 1.46, 20.05 1.11, 21.85 0.84 C23.66 0.56, 25.55 0.35, 27.45 0.21 C29.34 0.07, 31.29 0, 33.21 0 C35.14 0, 37.09 0.07, 38.98 0.21 C40.88 0.35, 42.77 0.56, 44.57 0.84 C46.38 1.11, 48.16 1.46, 49.82 1.86 C51.49 2.26, 53.09 2.73, 54.56 3.25 C56.04 3.76, 57.42 4.34, 58.66 4.96 C59.89 5.57, 61.02 6.24, 61.98 6.94 C62.94 7.64, 63.77 8.38, 64.43 9.13 C65.08 9.89, 65.59 10.68, 65.92 11.47 C66.26 12.26, 66.34 13.48, 66.43 13.88 C66.51 14.28, 66.51 13.48, 66.43 13.88" stroke="none" stroke-width="0" fill="#846358"></path><path d="M66.43 13.88 C66.43 14.68, 66.26 15.5, 65.92 16.29 C65.59 17.08, 65.08 17.87, 64.43 18.63 C63.77 19.38, 62.94 20.12, 61.98 20.82 C61.02 21.51, 59.89 22.18, 58.66 22.8 C57.42 23.42, 56.04 23.99, 54.56 24.51 C53.09 25.03, 51.49 25.5, 49.82 25.9 C48.16 26.3, 46.38 26.65, 44.57 26.92 C42.77 27.2, 40.88 27.41, 38.98 27.55 C37.09 27.69, 35.14 27.76, 33.21 27.76 C31.29 27.76, 29.34 27.69, 27.45 27.55 C25.55 27.41, 23.66 27.2, 21.85 26.92 C20.05 26.65, 18.27 26.3, 16.61 25.9 C14.94 25.5, 13.34 25.03, 11.86 24.51 C10.39 23.99, 9.01 23.42, 7.77 22.8 C6.53 22.18, 5.41 21.51, 4.45 20.82 C3.49 20.12, 2.66 19.38, 2 18.63 C1.35 17.87, 0.84 17.08, 0.5 16.29 C0.17 15.5, 0 14.68, 0 13.88 C0 13.08, 0.17 12.26, 0.5 11.47 C0.84 10.68, 1.35 9.89, 2 9.13 C2.66 8.38, 3.49 7.64, 4.45 6.94 C5.41 6.24, 6.53 5.57, 7.77 4.96 C9.01 4.34, 10.39 3.76, 11.86 3.25 C13.34 2.73, 14.94 2.26, 16.61 1.86 C18.27 1.46, 20.05 1.11, 21.85 0.84 C23.66 0.56, 25.55 0.35, 27.45 0.21 C29.34 0.07, 31.29 0, 33.21 0 C35.14 0, 37.09 0.07, 38.98 0.21 C40.88 0.35, 42.77 0.56, 44.57 0.84 C46.38 1.11, 48.16 1.46, 49.82 1.86 C51.49 2.26, 53.09 2.73, 54.56 3.25 C56.04 3.76, 57.42 4.34, 58.66 4.96 C59.89 5.57, 61.02 6.24, 61.98 6.94 C62.94 7.64, 63.77 8.38, 64.43 9.13 C65.08 9.89, 65.59 10.68, 65.92 11.47 C66.26 12.26, 66.34 13.48, 66.43 13.88 C66.51 14.28, 66.51 13.48, 66.43 13.88" stroke="#a18072" stroke-width="1" fill="none"></path></g><g stroke-linecap="round"><g transform="translate(86.02943066517673 25.537407561594705) rotate(0 10.943012852520951 -7.7687037807973525)"><path d="M0 0 C1.42 -1.98, 4.87 -9.27, 8.52 -11.86 C12.17 -14.45, 19.66 -14.92, 21.89 -15.54 M0 0 C1.42 -1.98, 4.87 -9.27, 8.52 -11.86 C12.17 -14.45, 19.66 -14.92, 21.89 -15.54" stroke="#e03131" stroke-width="1" fill="none"></path></g></g><mask></mask><g transform="translate(80.43975497385873 32.40821873572429) rotate(0 4.594394709074095 3.9261191150266654)" stroke="none"><path fill="#e9ecef" d="M -1.71,4.72 Q -1.71,4.72 -2.80,4.42 -3.88,4.12 -6.10,4.75 -8.31,5.37 -6.69,3.76 -5.06,2.16 -2.47,1.79 0.11,1.43 2.23,-0.21 4.35,-1.86 6.88,-1.62 9.41,-1.38 11.53,-0.89 13.65,-0.39 14.62,1.87 15.60,4.15 17.63,5.74 19.67,7.32 17.45,7.54 15.23,7.75 13.00,8.33 10.76,8.91 8.26,8.77 5.77,8.62 2.89,8.38 0.01,8.14 -2.17,8.09 -4.37,8.04 -3.12,6.02 -1.87,4.01 -2.43,1.72 -2.98,-0.56 -4.68,-2.16 -6.37,-3.77 -4.15,-3.84 -1.93,-3.92 0.68,-4.73 3.31,-5.54 5.39,-6.00 7.47,-6.47 10.26,-6.96 13.05,-7.46 14.68,-7.08 16.32,-6.71 17.26,-6.71 18.19,-6.70 19.10,-6.47 20.01,-6.24 20.84,-5.80 21.66,-5.36 22.36,-4.73 23.06,-4.10 23.58,-3.33 24.11,-2.55 24.44,-1.68 24.76,-0.80 24.87,0.12 24.97,1.05 24.86,1.98 24.74,2.91 24.40,3.79 24.06,4.66 23.52,5.43 22.98,6.19 22.28,6.81 21.57,7.43 20.74,7.85 19.91,8.28 19.00,8.50 18.08,8.72 21.17,6.49 24.26,4.25 23.55,5.30 22.85,6.34 21.85,7.10 20.85,7.86 19.66,8.26 18.47,8.67 17.21,8.67 15.95,8.67 14.76,8.27 13.57,7.87 12.57,7.11 11.56,6.35 10.86,5.31 10.15,4.27 9.81,3.05 9.48,1.84 9.54,0.59 9.61,-0.66 10.08,-1.83 10.54,-2.99 11.35,-3.95 12.17,-4.91 13.24,-5.56 14.32,-6.21 15.55,-6.48 16.78,-6.75 18.03,-6.62 19.28,-6.48 20.42,-5.96 21.56,-5.43 22.47,-4.56 23.39,-3.70 23.98,-2.59 24.57,-1.48 24.77,-0.24 24.97,0.99 24.77,2.23 24.57,3.47 23.98,4.59 23.39,5.70 22.48,6.56 21.57,7.43 20.43,7.96 19.29,8.48 18.04,8.62 16.79,8.76 15.56,8.49 14.33,8.22 13.25,7.57 12.18,6.92 11.36,5.97 10.55,5.01 10.08,3.84 9.61,2.67 9.55,1.42 9.48,0.16 12.90,-3.27 16.32,-6.71 17.26,-6.71 18.19,-6.70 19.10,-6.47 20.01,-6.24 20.84,-5.80 21.66,-5.36 22.36,-4.73 23.06,-4.11 23.58,-3.33 24.11,-2.56 24.44,-1.68 24.76,-0.80 24.87,0.12 24.97,1.05 24.86,1.98 24.74,2.91 24.40,3.78 24.06,4.66 23.52,5.43 22.98,6.19 22.28,6.81 21.57,7.42 20.74,7.85 19.91,8.28 19.00,8.50 18.08,8.72 18.18,7.94 18.27,7.16 15.55,7.73 12.84,8.30 10.45,8.71 8.07,9.13 5.40,9.93 2.73,10.74 0.49,11.19 -1.74,11.63 -4.31,11.67 -6.87,11.71 -9.86,11.02 -12.85,10.33 -14.35,8.80 -15.86,7.27 -16.49,4.18 -17.12,1.10 -15.69,-1.21 -14.26,-3.52 -10.92,-5.15 -7.58,-6.78 -5.28,-7.07 -2.99,-7.36 -0.82,-7.30 1.34,-7.23 4.12,-6.32 6.90,-5.41 8.86,-6.52 10.83,-7.64 13.54,-8.17 16.24,-8.70 18.46,-8.54 20.68,-8.37 23.22,-7.44 25.77,-6.51 27.37,-4.87 28.97,-3.22 29.42,-0.15 29.87,2.91 28.89,5.24 27.91,7.57 26.58,9.27 25.24,10.97 22.94,12.36 20.64,13.76 18.27,14.13 15.89,14.51 13.69,14.36 11.48,14.21 9.38,13.85 7.28,13.49 5.15,12.24 3.02,10.99 6.39,11.15 9.75,11.30 7.61,12.86 5.48,14.42 3.35,15.05 1.23,15.68 -1.05,15.90 -3.34,16.13 -5.73,15.81 -8.13,15.49 -10.77,14.55 -13.40,13.60 -15.83,11.26 -18.25,8.91 -18.91,6.41 -19.57,3.91 -19.13,1.74 -18.70,-0.43 -16.42,-2.74 -14.15,-5.04 -11.92,-5.77 -9.70,-6.49 -7.34,-6.65 -4.97,-6.80 -2.65,-6.23 -0.33,-5.66 0.68,-5.19 1.71,-4.72 2.25,-4.44 2.79,-4.17 3.25,-3.77 3.71,-3.38 4.06,-2.88 4.41,-2.39 4.63,-1.83 4.86,-1.26 4.94,-0.66 5.02,-0.06 4.95,0.53 4.89,1.13 4.68,1.70 4.47,2.27 4.14,2.77 3.80,3.27 3.35,3.68 2.90,4.09 2.37,4.38 1.84,4.67 1.25,4.82 0.67,4.97 0.06,4.98 -0.53,4.99 -1.12,4.85 -1.71,4.72 -1.71,4.72 L -1.71,4.72 Z"></path></g><g stroke-linecap="round" transform="translate(76.00529675446978 21.289084142295337) rotate(0 10.024133910706496 7.434565983773837)"><path d="M20.05 7.43 C20.05 7.86, 20 8.3, 19.9 8.73 C19.8 9.15, 19.64 9.57, 19.44 9.98 C19.25 10.38, 19 10.78, 18.71 11.15 C18.42 11.52, 18.08 11.88, 17.7 12.21 C17.33 12.54, 16.91 12.85, 16.47 13.13 C16.02 13.41, 15.54 13.66, 15.04 13.87 C14.53 14.09, 14 14.27, 13.45 14.42 C12.91 14.57, 12.34 14.68, 11.76 14.76 C11.19 14.83, 10.6 14.87, 10.02 14.87 C9.44 14.87, 8.85 14.83, 8.28 14.76 C7.71 14.68, 7.14 14.57, 6.6 14.42 C6.05 14.27, 5.51 14.09, 5.01 13.87 C4.51 13.66, 4.03 13.41, 3.58 13.13 C3.14 12.85, 2.72 12.54, 2.35 12.21 C1.97 11.88, 1.63 11.52, 1.34 11.15 C1.05 10.78, 0.8 10.38, 0.6 9.98 C0.41 9.57, 0.25 9.15, 0.15 8.73 C0.05 8.3, 0 7.86, 0 7.43 C0 7, 0.05 6.57, 0.15 6.14 C0.25 5.72, 0.41 5.3, 0.6 4.89 C0.8 4.49, 1.05 4.09, 1.34 3.72 C1.63 3.34, 1.97 2.99, 2.35 2.66 C2.72 2.33, 3.14 2.02, 3.58 1.74 C4.03 1.46, 4.51 1.21, 5.01 1 C5.51 0.78, 6.05 0.6, 6.6 0.45 C7.14 0.3, 7.71 0.19, 8.28 0.11 C8.85 0.04, 9.44 0, 10.02 0 C10.6 0, 11.19 0.04, 11.76 0.11 C12.34 0.19, 12.91 0.3, 13.45 0.45 C14 0.6, 14.53 0.78, 15.04 1 C15.54 1.21, 16.02 1.46, 16.47 1.74 C16.91 2.02, 17.33 2.33, 17.7 2.66 C18.08 2.99, 18.42 3.34, 18.71 3.72 C19 4.09, 19.25 4.49, 19.44 4.89 C19.64 5.3, 19.8 5.72, 19.9 6.14 C20 6.57, 20.02 7.22, 20.05 7.43 C20.07 7.65, 20.07 7.22, 20.05 7.43" stroke="none" stroke-width="0" fill="#e03131"></path><path d="M20.05 7.43 C20.05 7.86, 20 8.3, 19.9 8.73 C19.8 9.15, 19.64 9.57, 19.44 9.98 C19.25 10.38, 19 10.78, 18.71 11.15 C18.42 11.52, 18.08 11.88, 17.7 12.21 C17.33 12.54, 16.91 12.85, 16.47 13.13 C16.02 13.41, 15.54 13.66, 15.04 13.87 C14.53 14.09, 14 14.27, 13.45 14.42 C12.91 14.57, 12.34 14.68, 11.76 14.76 C11.19 14.83, 10.6 14.87, 10.02 14.87 C9.44 14.87, 8.85 14.83, 8.28 14.76 C7.71 14.68, 7.14 14.57, 6.6 14.42 C6.05 14.27, 5.51 14.09, 5.01 13.87 C4.51 13.66, 4.03 13.41, 3.58 13.13 C3.14 12.85, 2.72 12.54, 2.35 12.21 C1.97 11.88, 1.63 11.52, 1.34 11.15 C1.05 10.78, 0.8 10.38, 0.6 9.98 C0.41 9.57, 0.25 9.15, 0.15 8.73 C0.05 8.3, 0 7.86, 0 7.43 C0 7, 0.05 6.57, 0.15 6.14 C0.25 5.72, 0.41 5.3, 0.6 4.89 C0.8 4.49, 1.05 4.09, 1.34 3.72 C1.63 3.34, 1.97 2.99, 2.35 2.66 C2.72 2.33, 3.14 2.02, 3.58 1.74 C4.03 1.46, 4.51 1.21, 5.01 1 C5.51 0.78, 6.05 0.6, 6.6 0.45 C7.14 0.3, 7.71 0.19, 8.28 0.11 C8.85 0.04, 9.44 0, 10.02 0 C10.6 0, 11.19 0.04, 11.76 0.11 C12.34 0.19, 12.91 0.3, 13.45 0.45 C14 0.6, 14.53 0.78, 15.04 1 C15.54 1.21, 16.02 1.46, 16.47 1.74 C16.91 2.02, 17.33 2.33, 17.7 2.66 C18.08 2.99, 18.42 3.34, 18.71 3.72 C19 4.09, 19.25 4.49, 19.44 4.89 C19.64 5.3, 19.8 5.72, 19.9 6.14 C20 6.57, 20.02 7.22, 20.05 7.43 C20.07 7.65, 20.07 7.22, 20.05 7.43" stroke="#e03131" stroke-width="1" fill="none"></path></g><g stroke-linecap="round" transform="translate(87.9170178163231 23.287089617553306) rotate(0 1.1778838385275776 0.4479359163753429)"><path d="M2.36 0.45 C2.36 0.47, 2.35 0.5, 2.34 0.53 C2.33 0.55, 2.31 0.58, 2.28 0.6 C2.26 0.63, 2.23 0.65, 2.2 0.67 C2.16 0.69, 2.12 0.72, 2.08 0.74 C2.04 0.76, 1.99 0.77, 1.94 0.79 C1.88 0.81, 1.83 0.82, 1.77 0.84 C1.71 0.85, 1.64 0.86, 1.58 0.87 C1.52 0.88, 1.45 0.88, 1.38 0.89 C1.32 0.89, 1.25 0.9, 1.18 0.9 C1.11 0.9, 1.04 0.89, 0.97 0.89 C0.91 0.88, 0.84 0.88, 0.78 0.87 C0.71 0.86, 0.65 0.85, 0.59 0.84 C0.53 0.82, 0.47 0.81, 0.42 0.79 C0.37 0.77, 0.32 0.76, 0.28 0.74 C0.23 0.72, 0.19 0.69, 0.16 0.67 C0.12 0.65, 0.09 0.63, 0.07 0.6 C0.05 0.58, 0.03 0.55, 0.02 0.53 C0.01 0.5, 0 0.47, 0 0.45 C0 0.42, 0.01 0.4, 0.02 0.37 C0.03 0.34, 0.05 0.32, 0.07 0.29 C0.09 0.27, 0.12 0.25, 0.16 0.22 C0.19 0.2, 0.23 0.18, 0.28 0.16 C0.32 0.14, 0.37 0.12, 0.42 0.1 C0.47 0.09, 0.53 0.07, 0.59 0.06 C0.65 0.05, 0.71 0.04, 0.78 0.03 C0.84 0.02, 0.91 0.01, 0.97 0.01 C1.04 0, 1.11 0, 1.18 0 C1.25 0, 1.32 0, 1.38 0.01 C1.45 0.01, 1.52 0.02, 1.58 0.03 C1.64 0.04, 1.71 0.05, 1.77 0.06 C1.83 0.07, 1.88 0.09, 1.94 0.1 C1.99 0.12, 2.04 0.14, 2.08 0.16 C2.12 0.18, 2.16 0.2, 2.2 0.22 C2.23 0.25, 2.26 0.27, 2.28 0.29 C2.31 0.32, 2.33 0.34, 2.34 0.37 C2.35 0.4, 2.35 0.43, 2.36 0.45 C2.36 0.46, 2.36 0.43, 2.36 0.45" stroke="none" stroke-width="0" fill="#ffffff"></path>
    <path d="M2.36 0.45 C2.36 0.47, 2.35 0.5, 2.34 0.53 C2.33 0.55, 2.31 0.58, 2.28 0.6 C2.26 0.63, 2.23 0.65, 2.2 0.67 C2.16 0.69, 2.12 0.72, 2.08 0.74 C2.04 0.76, 1.99 0.77, 1.94 0.79 C1.88 0.81, 1.83 0.82, 1.77 0.84 C1.71 0.85, 1.64 0.86, 1.58 0.87 C1.52 0.88, 1.45 0.88, 1.38 0.89 C1.32 0.89, 1.25 0.9, 1.18 0.9 C1.11 0.9, 1.04 0.89, 0.97 0.89 C0.91 0.88, 0.84 0.88, 0.78 0.87 C0.71 0.86, 0.65 0.85, 0.59 0.84 C0.53 0.82, 0.47 0.81, 0.42 0.79 C0.37 0.77, 0.32 0.76, 0.28 0.74 C0.23 0.72, 0.19 0.69, 0.16 0.67 C0.12 0.65, 0.09 0.63, 0.07 0.6 C0.05 0.58, 0.03 0.55, 0.02 0.53 C0.01 0.5, 0 0.47, 0 0.45 C0 0.42, 0.01 0.4, 0.02 0.37 C0.03 0.34, 0.05 0.32, 0.07 0.29 C0.09 0.27, 0.12 0.25, 0.16 0.22 C0.19 0.2, 0.23 0.18, 0.28 0.16 C0.32 0.14, 0.37 0.12, 0.42 0.1 C0.47 0.09, 0.53 0.07, 0.59 0.06 C0.65 0.05, 0.71 0.04, 0.78 0.03 C0.84 0.02, 0.91 0.01, 0.97 0.01 C1.04 0, 1.11 0, 1.18 0 C1.25 0, 1.32 0, 1.38 0.01 C1.45 0.01, 1.52 0.02, 1.58 0.03 C1.64 0.04, 1.71 0.05, 1.77 0.06 C1.83 0.07, 1.88 0.09, 1.94 0.1 C1.99 0.12, 2.04 0.14, 2.08 0.16 C2.12 0.18, 2.16 0.2, 2.2 0.22 C2.23 0.25, 2.26 0.27, 2.28 0.29 C2.31 0.32, 2.33 0.34, 2.34 0.37 C2.35 0.4, 2.35 0.43, 2.36 0.45 C2.36 0.46, 2.36 0.43, 2.36 0.45" stroke="#ffffff" stroke-width="2" fill="none"></path></g></svg>